# xmcd
#
# Track frame offsets:
#	150
#	10580
#	21417
#	31167
#	42550
#	54387
#	63427
#	74850
#	85345
#	94190
#	102632
#	111990
#	122130
#	131967
#	141035
#	150372
#	159262
#	169562
#	180497
#	189445
#	199935
#	213105
#	222572
#	233895
#	247247
#	258097
#	272045
#	282480
#
# Disc length: 3914 seconds
#
# Revision: 1
# Processed by: cddbd v1.5.2PL0 Copyright (c) Steve Scherf et al.
# Submitted via: EasyCDDAExtractor 12.0.0.1
#
DISCID=a20f481c
DTITLE=Sonny James - Young Love: The Complete Recordings 1952-62 - Disc 04
DYEAR=2002
DGENRE=Country
TTITLE0=Walk To The Dance
TTITLE1=Kathaleen
TTITLE2=Are You Mine (& Darla Daret)
TTITLE3=Let's Play Love
TTITLE4=I Can See It In Your Eyes
TTITLE5=You Got That Touch
TTITLE6=I'm Making' Time With You
TTITLE7=I Can't Stay Away From You
TTITLE8=Let Me Be The One To Love You
TTITLE9=Sweet Thing
TTITLE10=Let's Make Up
TTITLE11=Yo-Yo
TTITLE12=Dream Big
TTITLE13=You Don't Hurt Me Any More
TTITLE14=Love Me Like I Am
TTITLE15=Sweet Thing (remake)
TTITLE16='Deed I Do
TTITLE17=You're A Sweetheart
TTITLE18=Sweetheart
TTITLE19=You, You, You
TTITLE20=Moments To Remember
TTITLE21=Honey
TTITLE22=If I Had A Talking Picture Of You
TTITLE23=Honest And Truly
TTITLE24=That's How Much I Love You
TTITLE25=Goodnight Sweetheart
TTITLE26=Over Somebody Else's Shoulder
TTITLE27=I Love You So Much It Hurts
EXTD=
EXTT0=
EXTT1=
EXTT2=
EXTT3=
EXTT4=
EXTT5=
EXTT6=
EXTT7=
EXTT8=
EXTT9=
EXTT10=
EXTT11=
EXTT12=
EXTT13=
EXTT14=
EXTT15=
EXTT16=
EXTT17=
EXTT18=
EXTT19=
EXTT20=
EXTT21=
EXTT22=
EXTT23=
EXTT24=
EXTT25=
EXTT26=
EXTT27=
PLAYORDER=
